<svg width="57" height="40" viewBox="0 0 57 40" fill="none" xmlns="http://www.w3.org/2000/svg">
<path d="M45.5209 25.1613C45.7685 29.9095 41.9781 28.6704 41.9781 28.6704C41.9781 28.6704 43.0286 33.3109 38.3863 32.1572C38.3422 35.3637 36.9313 36.3732 34.1538 35.1859C34.1467 37.5631 32.1661 38.64 30.6543 38.1658C30.1668 38.0128 26.2676 35.5006 26.2676 35.5006" stroke="black" stroke-width="2" stroke-miterlimit="1.5" stroke-linecap="round" stroke-linejoin="round"/>
<path fill-rule="evenodd" clip-rule="evenodd" d="M51.3474 1L56 21.3011L51.1796 23.9261L41.613 8.22729L51.3474 1Z" stroke="black" stroke-width="2" stroke-miterlimit="1.5" stroke-linecap="round" stroke-linejoin="round"/>
<path d="M42.1459 9.10143C42.1459 9.10143 38.3662 10.5171 36.5008 10.45C34.6353 10.3829 32.8593 8.34154 30.9535 8.69894C28.4743 9.16387 21.4915 12.3293 21.6262 13.2395C22.1457 16.7522 29.9298 15.696 31.4231 13.7419C31.5938 13.5185 45.5734 25.3439 45.44 25.3807C45.3067 25.4174 49.402 21.3445 49.402 21.3445" stroke="black" stroke-width="2" stroke-miterlimit="1.5" stroke-linecap="round" stroke-linejoin="round"/>
<path d="M32.4229 21.5693L42.0495 28.8817" stroke="black" stroke-width="2" stroke-miterlimit="1.5" stroke-linecap="round" stroke-linejoin="round"/>
<path d="M29.8618 26.1501L38.489 32.2917" stroke="black" stroke-width="2" stroke-miterlimit="1.5" stroke-linecap="round" stroke-linejoin="round"/>
<path d="M27.1404 30.0165L34.3346 35.2525" stroke="black" stroke-width="2" stroke-miterlimit="1.5" stroke-linecap="round" stroke-linejoin="round"/>
<path fill-rule="evenodd" clip-rule="evenodd" d="M23.3418 37.7004C24.6502 37.4787 26.5 35.1126 26.9364 33.9951C27.324 33.0028 26.431 30.6642 23.6742 31.3173C23.9219 28.517 22.8661 27.3021 20.4762 27.7098C20.063 24.6731 18.4261 23.3546 15.458 24.9188C15.3294 22.9776 13.4896 21.3882 11.896 22.261C11.896 22.261 8.41076 24.7385 7.93031 25.7791C7.30398 27.1355 8.30073 29.5092 11.1964 29.1025C11.1451 31.6767 12.5103 33.0104 15.0182 32.608C15.611 35.4781 17.2056 36.2418 19.8433 34.8091C20.1974 36.8854 20.9363 38.108 23.3418 37.7004Z" stroke="black" stroke-width="2" stroke-miterlimit="1.5" stroke-linecap="round" stroke-linejoin="round"/>
<path d="M19.9491 34.8284C19.724 34.9144 23.9483 30.942 23.9483 30.942" stroke="black" stroke-width="2" stroke-miterlimit="1.5" stroke-linecap="round" stroke-linejoin="round"/>
<path d="M15.1628 32.4819L20.4296 27.7798" stroke="black" stroke-width="2" stroke-miterlimit="1.5" stroke-linecap="round" stroke-linejoin="round"/>
<path d="M11.0627 29.3603C11.0627 29.3603 15.849 24.6648 15.6669 24.8208" stroke="black" stroke-width="2" stroke-miterlimit="1.5" stroke-linecap="round" stroke-linejoin="round"/>
<path fill-rule="evenodd" clip-rule="evenodd" d="M1 21.5771L5.08319 2.11536L14.5614 8.57203L5.41616 24.3698L1 21.5771Z" stroke="black" stroke-width="2" stroke-miterlimit="1.5" stroke-linecap="round" stroke-linejoin="round"/>
<path d="M6.38208 22.8101L8.76138 24.7233" stroke="black" stroke-width="2" stroke-miterlimit="1.5" stroke-linecap="round" stroke-linejoin="round"/>
<path d="M14.0513 9.72171L25.7255 8.95703L27.899 9.50266" stroke="black" stroke-width="2" stroke-miterlimit="1.5" stroke-linecap="round" stroke-linejoin="round"/>
</svg>
