<svg width="70" height="70" viewBox="0 0 70 70" fill="none" xmlns="http://www.w3.org/2000/svg">
<path d="M34.9971 1.0117C25.7608 1.0117 24.6026 1.05265 20.9818 1.21643C17.3609 1.38021 14.8925 1.95931 12.7282 2.79578C10.4937 3.66735 8.59845 4.82555 6.70323 6.71492C4.81385 8.6043 3.64981 10.4995 2.78409 12.734C1.94176 14.8983 1.36852 17.3668 1.20473 20.9876C1.04095 24.6143 1 25.7725 1 35.0029C1 44.2334 1.04095 45.3974 1.20473 49.0182C1.36852 52.639 1.94176 55.1075 2.78409 57.2718C3.64981 59.5063 4.81385 61.4015 6.70323 63.2968C8.5926 65.1861 10.4878 66.3502 12.7282 67.2159C14.8925 68.0582 17.3609 68.6315 20.9818 68.7953C24.6084 68.959 25.7666 69 35.0029 69C44.2392 69 45.3974 68.959 49.0182 68.7953C52.639 68.6315 55.1075 68.0582 57.2718 67.2159C59.5063 66.3502 61.4015 65.1861 63.2968 63.2968C65.192 61.4074 66.3502 59.5122 67.2159 57.2718C68.0582 55.1075 68.6315 52.639 68.7953 49.0182C68.9591 45.3916 69 44.2334 69 34.9971C69 25.7608 68.9591 24.6026 68.7953 20.9818C68.6315 17.3609 68.0524 14.8925 67.2159 12.7282C66.3443 10.4937 65.1861 8.59845 63.2968 6.70323C61.4074 4.81385 59.5122 3.64981 57.2777 2.78409C55.1134 1.94176 52.6449 1.36852 49.0241 1.20473C45.3974 1.04095 44.2392 1 35.0088 1L34.9971 1.0117ZM34.9971 17.554C25.3572 17.554 17.5364 25.3689 17.5364 35.0146C17.5364 44.6604 25.3513 52.4753 34.9971 52.4753C44.6428 52.4753 52.4577 44.6604 52.4577 35.0146C52.4577 25.3689 44.6428 17.554 34.9971 17.554ZM57.225 16.8637C57.225 19.1158 55.4 20.9467 53.1421 20.9467C50.8842 20.9467 49.0592 19.1216 49.0592 16.8637C49.0592 14.6058 50.8842 12.7808 53.1421 12.7808C55.4 12.7808 57.225 14.6058 57.225 16.8637Z" stroke="black" stroke-width="2" stroke-miterlimit="10"/>
</svg>
