<svg width="72" height="73" viewBox="0 0 72 73" fill="none" xmlns="http://www.w3.org/2000/svg">
<path d="M9.40935 17.9559C4.76283 17.9559 1 14.1624 1 9.47795C1 4.79352 4.76283 1 9.40935 1C14.0559 1 17.8187 4.79352 17.8187 9.47795C17.8187 14.1624 14.0559 17.9559 9.40935 17.9617M70.9943 71.4504H56.5017V48.5685C56.5017 43.1139 56.4048 36.0901 48.9647 36.0901C41.5245 36.0901 40.2588 42.0333 40.2588 48.1719V71.4504H25.7662V24.3934H39.6773V30.8252H39.8712C42.7104 25.9338 47.984 23.0139 53.5998 23.2266C68.2919 23.2266 71 32.9691 71 45.6429V71.4561H70.9943V71.4504ZM16.6613 71.4504H2.15165V24.3934H16.6613V71.4504Z" stroke="black" stroke-width="2" stroke-miterlimit="10"/>
</svg>
