<svg width="44" height="45" viewBox="0 0 44 45" fill="none" xmlns="http://www.w3.org/2000/svg">
<path d="M15.9426 31.1561C24.1951 31.1561 30.8851 24.4054 30.8851 16.078C30.8851 7.75067 24.1951 1 15.9426 1C7.69001 1 1 7.75067 1 16.078C1 24.4054 7.69001 31.1561 15.9426 31.1561Z" stroke="black" stroke-width="2" stroke-miterlimit="1.5" stroke-linecap="round" stroke-linejoin="round"/>
<path d="M15.9379 26.9083C21.9472 26.9083 26.8186 22.0268 26.8186 16.0052C26.8186 9.98358 21.9472 5.10211 15.9379 5.10211C9.92861 5.10211 5.05713 9.98358 5.05713 16.0052C5.05713 22.0268 9.92861 26.9083 15.9379 26.9083Z" stroke="black" stroke-width="2" stroke-miterlimit="1.5" stroke-linecap="round" stroke-linejoin="round"/>
<path d="M28.9868 23.3772C28.9868 23.3772 41.0403 34.9781 42.419 37.004C43.3196 38.3272 43.2049 40.3908 41.854 41.7725C40.8735 42.7753 38.3145 43.6713 37.0717 42.6326C35.1028 40.9871 23.4275 29.1514 23.4275 29.1514" stroke="black" stroke-width="2" stroke-miterlimit="1.5" stroke-linecap="round" stroke-linejoin="round"/>
</svg>
