<svg width="62" height="81" viewBox="0 0 62 81" fill="none" xmlns="http://www.w3.org/2000/svg">
<path d="M31.2016 39.1777C20.677 39.1777 12.1128 30.6135 12.1128 20.0889C12.1128 9.56423 20.6714 1 31.2016 1C41.7319 1 50.2905 9.56423 50.2905 20.0889C50.2905 30.6135 41.7263 39.1777 31.2016 39.1777ZM31 79.3383C22.559 79.3383 14.5885 78.655 5.92905 77.081C3.07244 76.5601 1 74.0732 1 71.155C1 60.1318 13.233 43.8827 28.2722 43.8827H33.7278C48.7614 43.8827 61 56.1158 61 71.155C61 74.0732 58.9332 76.5601 56.0933 77.0754C47.8372 78.5765 39.3962 79.3327 31 79.3327V79.3383Z" stroke="black" stroke-width="2" stroke-miterlimit="10"/>
</svg>
