<svg width="45" height="46" viewBox="0 0 45 46" fill="none" xmlns="http://www.w3.org/2000/svg">
<path fill-rule="evenodd" clip-rule="evenodd" d="M29.0644 24.8904C40.9828 26.4854 44.7691 40.7231 42.7398 42.4892C38.8984 45.8324 5.43374 45.6125 1.82575 43.1512C1.52861 42.9486 1.27635 42.7064 1.20836 42.4257C-0.269777 36.3266 6.31932 25.1785 15.1203 24.7886C17.4543 28.3296 26.4847 28.6043 29.0644 24.8904Z" stroke="black" stroke-width="2" stroke-miterlimit="1.5" stroke-linecap="round" stroke-linejoin="round"/>
<path d="M22.1021 22.8534C28.197 22.8534 33.1379 17.9613 33.1379 11.9267C33.1379 5.89204 28.197 1 22.1021 1C16.0073 1 11.0664 5.89204 11.0664 11.9267C11.0664 17.9613 16.0073 22.8534 22.1021 22.8534Z" stroke="black" stroke-width="2" stroke-miterlimit="1.5" stroke-linecap="round" stroke-linejoin="round"/>
</svg>
