<svg width="42" height="48" viewBox="0 0 42 48" fill="none" xmlns="http://www.w3.org/2000/svg">
<path d="M11.3804 12.5781H16.2974L16.6532 37.6849C16.6964 41.2217 16.5993 43.3907 14.9603 43.3907H12.9547C11.2887 43.4016 10.8305 41.6086 10.852 37.7666L11.375 12.5781H11.3804Z" stroke="#231F20" stroke-width="2" stroke-miterlimit="10"/>
<path d="M1.69745 11.9295L6.71689 9.37904C6.79237 9.34089 6.87864 9.31909 6.95951 9.31909H8.33972C8.6039 9.31909 8.84652 9.47713 8.95974 9.72237L10.2537 12.578H16.4377C16.5994 12.578 16.7558 12.5017 16.8582 12.3764L17.861 11.1393C17.9203 11.0684 18.0012 11.0303 18.0929 11.0303H19.9637C19.996 11.0303 20.0284 11.0412 20.0554 11.063L21.263 11.984C21.387 12.0766 21.5326 12.1257 21.6836 12.1257H23.8887C24.1475 12.1257 24.3577 11.9186 24.3631 11.657L24.4548 5.14462C24.4548 4.83398 24.2068 4.5833 23.8995 4.5833H21.8777C21.8184 4.5833 21.7591 4.6051 21.7159 4.6378L20.4328 5.82583C20.3195 5.92938 20.174 5.98932 20.0176 5.98932H18.3894C18.3301 6.00567 18.2654 5.97842 18.2276 5.92938L16.9067 4.06013C16.7881 3.89119 16.5994 3.79309 16.3946 3.79309H9.07835C8.59312 3.79309 8.0378 3.96203 7.55796 4.18002C6.98107 4.44161 6.47967 4.85033 6.0807 5.34081L1.32544 11.1502C0.419674 12.4418 1.69206 11.9349 1.69206 11.9349L1.69745 11.9295Z" stroke="#231F20" stroke-width="2" stroke-miterlimit="10"/>
<path d="M33.9816 1.75491L32.5367 6.22912C32.4612 6.45256 32.5744 6.6978 32.7847 6.79044L35.5505 7.99483C35.7931 8.09837 36.0681 7.97848 36.1651 7.73324L38.0467 2.76311C38.2785 2.23994 39.0172 1.9947 39.4215 3.48247L40.2572 6.5997C40.4459 7.43896 40.4028 8.85043 40.392 9.87498C40.392 10.2565 40.2464 10.627 39.9984 10.9104L36.9792 14.3274C36.8013 14.529 36.6989 14.7961 36.6989 15.0685V33.4722C36.6989 33.7501 36.7905 34.0226 36.963 34.2406L39.1897 37.3251C39.3461 37.5431 39.4323 37.8102 39.4269 38.0826L39.373 41.347C39.3622 41.9029 39.125 42.4261 38.7099 42.7912L34.4614 46.5678C34.3212 46.6877 34.111 46.5569 34.1649 46.3771L35.6367 41.1617C35.7014 40.9274 35.5774 40.6822 35.3456 40.6059L32.5259 39.6413C32.2886 39.5595 32.0352 39.6794 31.9436 39.9138L30.0296 44.8784C29.6738 45.6795 29.016 44.3008 28.5739 43.2653C28.3529 42.7421 28.1049 41.6849 28.0887 41.1181L27.9809 37.9737C27.9701 37.5813 28.0941 37.1943 28.3421 36.8892L31.1996 33.3414C31.3667 33.1343 31.4584 32.8727 31.4584 32.6057V14.1966C31.4584 13.9078 31.3721 13.6244 31.2157 13.3846L28.6225 9.4826C28.3044 8.96487 28.3852 7.91308 28.4068 6.97573C28.4176 6.6542 28.4931 6.33812 28.6979 6.09288L32.693 1.28624C33.0327 0.882962 33.6581 0.910211 33.9654 1.34074C34.0463 1.45518 34.0031 1.67862 33.9762 1.74947L33.9816 1.75491Z" stroke="#231F20" stroke-width="2" stroke-miterlimit="10"/>
</svg>
